<svg xmlns="http://www.w3.org/2000/svg" viewBox="0 0 64 64">
  <rect width="64" height="64" rx="12" fill="#185FA5"/>
  <g transform="translate(11,14)">
    <rect x="1" y="1" width="11" height="5" rx="1" fill="#fff"/>
    <rect x="15.5" y="1" width="11" height="5" rx="1" fill="#fff"/>
    <rect x="30" y="1" width="11" height="5" rx="1" fill="#fff"/>
    <rect x="3" y="6" width="4" height="9" rx="1" fill="#93bbdc"/>
    <rect x="19" y="6" width="4" height="9" rx="1" fill="#93bbdc"/>
    <rect x="35" y="6" width="4" height="9" rx="1" fill="#93bbdc"/>
    <rect x="1" y="15" width="11" height="4" rx="1" fill="#fff"/>
    <rect x="15.5" y="15" width="11" height="4" rx="1" fill="#fff"/>
    <rect x="30" y="15" width="11" height="4" rx="1" fill="#fff"/>
    <rect x="3" y="19" width="4" height="7" rx="1" fill="#93bbdc"/>
    <rect x="19" y="19" width="4" height="7" rx="1" fill="#93bbdc"/>
    <rect x="35" y="19" width="4" height="7" rx="1" fill="#93bbdc"/>
    <rect x="1" y="26" width="40" height="5" rx="1" fill="#fff"/>
    <rect x="1" y="31" width="11" height="4" rx="1" fill="#93bbdc"/>
    <rect x="15.5" y="31" width="11" height="4" rx="1" fill="#93bbdc"/>
    <rect x="30" y="31" width="11" height="4" rx="1" fill="#93bbdc"/>
  </g>
</svg>
